PathFileType	4	(X/Y/Z)	C:\Git\research_data\torsion_deformities_healthy_kinematics\simulations\TD07\pre\static_01\markers.trc
DataRate	CameraRate	NumFrames	NumMarkers	Units	OrigDataRate	OrigDataStartFrame	OrigNumFrames
200.000000	200.000000	4	34	mm	200.000000	45	120
Frame#	Time	C7			T10			CLAV			STRN			RBAK			LASI			RASI			SACR			RT1			RT2			RT3			RKNE			RS1			RS2			RS3			RANK			RHEE			RTOE			RM5D			LT1			LT2			LT3			LKNE			LS1			LS2			LS3			LANK			LHEE			LTOE			LM5D			RANKM			LANKM			RKNEM			LKNEM			
		X1	Y1	Z1	X2	Y2	Z2	X3	Y3	Z3	X4	Y4	Z4	X5	Y5	Z5	X6	Y6	Z6	X7	Y7	Z7	X8	Y8	Z8	X9	Y9	Z9	X10	Y10	Z10	X11	Y11	Z11	X12	Y12	Z12	X13	Y13	Z13	X14	Y14	Z14	X15	Y15	Z15	X16	Y16	Z16	X17	Y17	Z17	X18	Y18	Z18	X19	Y19	Z19	X20	Y20	Z20	X21	Y21	Z21	X22	Y22	Z22	X23	Y23	Z23	X24	Y24	Z24	X25	Y25	Z25	X26	Y26	Z26	X27	Y27	Z27	X28	Y28	Z28	X29	Y29	Z29	X30	Y30	Z30	X31	Y31	Z31	X32	Y32	Z32	X33	Y33	Z33	X34	Y34	Z34	

46	0.225	654.1716308593749	1227.715942382812	348.8656616210937	662.5639648437499	1004.730041503906	345.1325988769531	668.8226318359374	1200.19677734375	222.4216613769531	669.8530273437499	1067.890380859375	154.1943054199218	756.2282714843749	1095.60400390625	360.4134826660156	547.1532592773438	797.0919189453125	207.3123321533203	803.0322875976562	833.2329711914062	199.3824157714843	672.5115966796875	853.8049926757812	357.2450561523437	865.1890869140625	607.2575073242188	310.2551574707031	862.9769897460938	546.8634033203125	337.5900573730468	875.4930419921875	545.704345703125	289.0890197753906	881.5696411132812	442.2885131835938	299.7215881347656	915.6710205078125	350.3843994140626	351.9302978515624	922.1492309570312	287.2905883789063	377.1159973144531	937.8283081054688	293.0017089843751	326.8981933593749	962.2888793945312	87.30902099609381	321.9755859374999	922.9727783203125	45.92121887207037	358.8370666503906	978.92919921875	47.62579345703131	167.4729766845703	1003.103088378906	34.41487121582038	257.7971496582031	482.3746948242187	615.4869995117188	255.1885833740234	473.0034179687499	559.4500122070312	290.7434387207031	482.2442016601562	550.92724609375	240.2457122802734	452.8424072265625	421.9012756347656	304.8746032714844	400.8682861328125	310.1571044921875	318.8724670410156	386.0736083984375	255.4159088134766	353.5422058105469	381.32177734375	248.7371368408203	302.8286743164062	348.7762145996094	71.22223663330081	335.0576477050781	387.1455383300781	43.30284881591799	357.6556396484375	297.8959655761719	42.69775772094729	178.6988677978515	286.2249755859375	29.7426280975342	273.34765625	888.3826904296875	75.00038146972662	278.3307800292968	407.2845153808594	67.50637054443362	271.9021911621094	792.7569580078125	404.8000793457032	268.2270812988281	542.2525634765625	383.1251525878907	261.6350097656249	
47	0.23	654.1484985351561	1227.748168945312	348.8377380371093	662.5910034179686	1004.738159179688	345.1311035156249	668.7938232421874	1200.206298828125	222.3901214599609	669.8226318359374	1067.902099609375	154.1608734130859	756.2381591796874	1095.637329101562	360.3810424804687	547.1414794921875	797.103759765625	207.3556060791015	803.0198364257812	833.2293701171875	199.3851928710937	672.52294921875	853.809814453125	357.2663574218749	865.1743774414062	607.2626953125	310.2563171386718	862.9473266601562	546.8702392578125	337.6160888671874	875.4887084960938	545.70703125	289.0901489257812	881.5630493164062	442.2928161621094	299.7300109863281	915.6758422851562	350.3842468261719	351.9425964355468	922.1549072265625	287.2900390625001	377.1142272949218	937.8264770507812	293.0075073242188	326.8999023437499	962.290283203125	87.31088256835943	321.9744567871093	922.97412109375	45.92108154296881	358.8386535644531	978.927734375	47.62601470947271	167.4736938476562	1003.102844238281	34.41535568237311	257.7975769042968	482.3624267578124	615.4949951171875	255.2262268066406	472.9932250976562	559.4539794921875	290.7768249511718	482.2298583984374	550.9359741210938	240.2793884277343	452.8349609375	421.9033508300781	304.8895874023438	400.8629455566406	310.1570129394531	318.8824157714844	386.0733032226562	255.41845703125	353.5453796386719	381.3183898925781	248.7377471923828	302.8359680175781	348.7804260253906	71.22132110595706	335.0578918457031	387.1481323242188	43.30184555053713	357.6538696289062	297.8946838378906	42.69702148437502	178.6993255615234	286.2257080078125	29.74187660217287	273.3481750488281	888.3833618164062	75.00080108642584	278.3338928222656	407.2849731445312	67.5076599121094	271.9021911621094	792.7485961914062	404.7990722656251	268.2415771484374	542.2443237304688	383.1322631835938	261.6490783691406	
48	0.235	654.1260375976561	1227.780029296875	348.8098449707031	662.6181030273436	1004.746032714844	345.1290893554687	668.7652587890624	1200.2158203125	222.358169555664	669.7914428710936	1067.913818359375	154.1271362304687	756.2479858398436	1095.669555664062	360.3478698730468	547.12939453125	797.115478515625	207.397705078125	803.0070190429688	833.225830078125	199.3856811523437	672.53466796875	853.8143920898438	357.2859191894531	865.15966796875	607.2679443359375	310.2555236816406	862.9173583984375	546.8771362304688	337.6414184570312	875.4841918945312	545.709716796875	289.0894775390624	881.5564575195312	442.2971801757813	299.7370605468749	915.680419921875	350.3843688964844	351.9534606933593	922.1603393554688	287.2900695800782	377.1116638183593	937.8246459960938	293.0132751464844	326.9008178710937	962.2915649414062	87.31277465820318	321.9733276367187	922.9754028320312	45.92095184326178	358.8401489257812	978.9262084960938	47.62612152099615	167.4744110107421	1003.102783203125	34.41584014892585	257.7976989746093	482.3500976562499	615.5029296875	255.2628326416015	472.9831237792968	559.4580078125	290.8092041015624	482.2149658203124	550.9448852539062	240.3118743896484	452.8275451660156	421.9054260253906	304.90380859375	400.857666015625	310.156982421875	318.891845703125	386.0730590820312	255.4209747314453	353.5482788085938	381.3150634765625	248.7383270263672	302.8428344726562	348.7846984863281	71.22045898437503	335.05810546875	387.1506958007812	43.30093765258791	357.652099609375	297.8934020996094	42.69629669189455	178.6997375488281	286.2264709472656	29.74117851257326	273.3486328125	888.3839111328125	75.00115966796881	278.3369140624999	407.2854614257812	67.5088806152344	271.9020690917969	792.7401733398438	404.7980346679688	268.2549438476562	542.236083984375	383.1392517089844	261.6622314453124	
49	0.24	654.1042480468749	1227.811279296875	348.7819519042968	662.6452026367186	1004.753845214844	345.1265869140624	668.7368164062499	1200.225219726562	222.3258361816406	669.7595214843749	1067.925659179688	154.0930786132812	756.2576904296874	1095.70068359375	360.3140258789062	547.1168823242188	797.1271362304688	207.4386291503906	802.9937744140625	833.2222900390625	199.3839111328124	672.546875	853.81884765625	357.3037719726562	865.1449584960938	607.2733154296875	310.2527770996093	862.8871459960938	546.884033203125	337.6659851074218	875.4795532226562	545.71240234375	289.0870361328124	881.5498046875	442.3015441894532	299.7427062988281	915.6847534179688	350.3846740722657	351.9628295898437	922.1654663085938	287.2906799316407	377.1083068847656	937.82275390625	293.0190124511719	326.9009094238281	962.2926635742188	87.31468200683599	321.9721984863281	922.9766235351562	45.92082595825201	358.8415527343749	978.9246826171875	47.62611389160162	167.4751281738281	1003.102844238281	34.41633224487311	257.7975158691406	482.3377075195312	615.5108032226562	255.2983703613281	472.9731140136718	559.4620361328125	290.8405761718749	482.1994628906249	550.9539184570312	240.3431701660156	452.8202514648438	421.9075012207031	304.9172668457031	400.8525085449219	310.1569519042969	318.9007568359375	386.0728454589844	255.4234466552735	353.5508728027344	381.3117980957031	248.7389068603516	302.849365234375	348.7890625	71.21965026855472	335.0582275390625	387.1532592773438	43.3001289367676	357.6503601074219	297.8921203613281	42.69558334350588	178.7001190185547	286.2272338867188	29.740535736084	273.3490600585938	888.38427734375	75.00144195556646	278.3398437499999	407.2859802246094	67.51002502441409	271.9018859863281	792.7317504882812	404.7969665527344	268.2672119140624	542.2278442382812	383.1461181640626	261.6744995117187	
